<svg width="96" height="19" viewBox="0 0 96 19" fill="none" xmlns="http://www.w3.org/2000/svg">
    <path d="M12.048 15.24H6.048L5.136 18H0.192L6.36 1.08H11.784L17.928 18H12.96L12.048 15.24ZM10.872 11.64L9.048 6.168L7.248 11.64H10.872ZM24.1652 0.24V18H19.4612V0.24H24.1652ZM34.788 13.992V18H32.748C29.308 18 27.588 16.296 27.588 12.888V8.448H25.932V4.536H27.588V1.272H32.316V4.536H34.764V8.448H32.316V12.96C32.316 13.328 32.396 13.592 32.556 13.752C32.732 13.912 33.02 13.992 33.42 13.992H34.788ZM49.8096 11.112C49.8096 11.48 49.7856 11.848 49.7376 12.216H40.8336C40.8816 12.952 41.0816 13.504 41.4336 13.872C41.8016 14.224 42.2656 14.4 42.8256 14.4C43.6096 14.4 44.1696 14.048 44.5056 13.344H49.5216C49.3136 14.272 48.9056 15.104 48.2976 15.84C47.7056 16.56 46.9536 17.128 46.0416 17.544C45.1296 17.96 44.1216 18.168 43.0176 18.168C41.6896 18.168 40.5056 17.888 39.4656 17.328C38.4416 16.768 37.6336 15.968 37.0416 14.928C36.4656 13.888 36.1776 12.664 36.1776 11.256C36.1776 9.848 36.4656 8.632 37.0416 7.608C37.6176 6.568 38.4176 5.768 39.4416 5.208C40.4816 4.648 41.6736 4.368 43.0176 4.368C44.3456 4.368 45.5216 4.64 46.5456 5.184C47.5696 5.728 48.3696 6.512 48.9456 7.536C49.5216 8.544 49.8096 9.736 49.8096 11.112ZM45.0096 9.936C45.0096 9.36 44.8176 8.912 44.4336 8.592C44.0496 8.256 43.5696 8.088 42.9936 8.088C42.4176 8.088 41.9456 8.248 41.5776 8.568C41.2096 8.872 40.9696 9.328 40.8576 9.936H45.0096ZM60.5426 4.416C62.0946 4.416 63.3266 4.936 64.2386 5.976C65.1506 7 65.6066 8.392 65.6066 10.152V18H60.9026V10.776C60.9026 10.008 60.7026 9.408 60.3026 8.976C59.9026 8.528 59.3666 8.304 58.6946 8.304C57.9906 8.304 57.4386 8.528 57.0386 8.976C56.6386 9.408 56.4386 10.008 56.4386 10.776V18H51.7346V4.536H56.4386V6.456C56.8546 5.848 57.4146 5.36 58.1186 4.992C58.8226 4.608 59.6306 4.416 60.5426 4.416ZM67.4198 11.256C67.4198 9.864 67.7078 8.648 68.2838 7.608C68.8598 6.568 69.6598 5.768 70.6838 5.208C71.7238 4.648 72.9078 4.368 74.2358 4.368C75.9478 4.368 77.3878 4.84 78.5558 5.784C79.7238 6.712 80.4758 8.016 80.8118 9.696H75.8198C75.5318 8.816 74.9718 8.376 74.1398 8.376C73.5478 8.376 73.0758 8.624 72.7238 9.12C72.3878 9.6 72.2198 10.312 72.2198 11.256C72.2198 12.2 72.3878 12.92 72.7238 13.416C73.0758 13.912 73.5478 14.16 74.1398 14.16C74.9878 14.16 75.5478 13.72 75.8198 12.84H80.8118C80.4758 14.504 79.7238 15.808 78.5558 16.752C77.3878 17.696 75.9478 18.168 74.2358 18.168C72.9078 18.168 71.7238 17.888 70.6838 17.328C69.6598 16.768 68.8598 15.968 68.2838 14.928C67.7078 13.888 67.4198 12.664 67.4198 11.256ZM95.6299 11.112C95.6299 11.48 95.6059 11.848 95.5579 12.216H86.6539C86.7019 12.952 86.9019 13.504 87.2539 13.872C87.6219 14.224 88.0859 14.4 88.6459 14.4C89.4299 14.4 89.9899 14.048 90.3259 13.344H95.3419C95.1339 14.272 94.7259 15.104 94.1179 15.84C93.5259 16.56 92.7739 17.128 91.8619 17.544C90.9499 17.96 89.9419 18.168 88.8379 18.168C87.5099 18.168 86.3259 17.888 85.2859 17.328C84.2619 16.768 83.4539 15.968 82.8619 14.928C82.2859 13.888 81.9979 12.664 81.9979 11.256C81.9979 9.848 82.2859 8.632 82.8619 7.608C83.4379 6.568 84.2379 5.768 85.2619 5.208C86.3019 4.648 87.4939 4.368 88.8379 4.368C90.1659 4.368 91.3419 4.64 92.3659 5.184C93.3899 5.728 94.1899 6.512 94.7659 7.536C95.3419 8.544 95.6299 9.736 95.6299 11.112ZM90.8299 9.936C90.8299 9.36 90.6379 8.912 90.2539 8.592C89.8699 8.256 89.3899 8.088 88.8139 8.088C88.2379 8.088 87.7659 8.248 87.3979 8.568C87.0299 8.872 86.7899 9.328 86.6779 9.936H90.8299Z" fill="#A2D298"/>
</svg>
