<svg width="601" height="395" viewBox="0 0 601 395" fill="none" xmlns="http://www.w3.org/2000/svg">
<path d="M588.452 363.397C584.662 355.636 569.25 349.397 562.358 347.98C525.554 340.445 487.01 341.485 449.742 341.621C409.149 341.756 370.408 348.734 330.151 351.959C309.208 353.632 287.086 350.618 266.102 349.834C231.543 348.553 196.999 347.046 162.455 345.313C132.67 343.821 101.761 347.167 75.4844 364.799C72.4946 366.803 69.4767 369.229 68.1292 372.816C59.595 395.406 165.95 392.558 179.804 392.95C249.707 394.909 319.651 395.919 389.554 393.884C441.531 392.377 495.698 392.468 547.255 384.586C558.653 382.838 574.163 382.22 584.017 375.016C589.449 371.038 590.235 367.059 588.452 363.397Z" fill="#E6E6E7"/>
<path d="M520.438 23.3466C521.317 23.3466 522.223 23.364 523.142 23.4162" stroke="#D2E8F9" stroke-miterlimit="10"/>
<path d="M528.549 23.906C545.997 26.1962 567.31 35.7418 564.823 55.27C560.85 86.4068 453.891 74.9206 428.347 75.2353C376.976 75.8822 325.051 76.1269 274.68 90.6726C262.435 94.2041 244.893 102.001 246.217 122.211C246.677 129.274 249.907 135.656 253.988 140.446C268.693 157.631 289.195 159.275 308.224 162.299C336.998 166.862 473.893 160.778 518.642 179.765C527.454 183.506 538.469 188.314 538.834 204.608C539.766 246.007 460.27 243.979 436.429 244.765C372.786 246.863 309.076 246.042 245.433 244.416C193.994 243.105 142.407 241.933 91.063 237.65C71.9256 236.042 40.611 235.569 26.0146 216.985C17.8515 206.601 16.7838 187.702 29.6907 178.051C38.7864 171.251 65.4653 174.223 75.7369 173.086C106.795 169.625 97.4016 145.254 72.2364 142.142" stroke="#DAD9ED" stroke-miterlimit="10" stroke-dasharray="4.01 4.01"/>
<path d="M69.5312 141.827C68.6527 141.774 67.7472 141.74 66.8281 141.74" stroke="#D2E8F9" stroke-miterlimit="10"/>
<path d="M69.0733 140.583L39.1814 125.73C37.3975 124.846 35.3137 126.224 35.4337 128.2L37.4874 161.485C37.6073 163.477 39.841 164.585 41.505 163.477L69.3282 145.06C71.0072 143.952 70.8573 141.466 69.0733 140.583Z" fill="#E0ECED"/>
<path d="M65.7769 144.087C65.6719 144.221 65.537 144.356 65.3871 144.461L42.5109 159.599C42.0312 159.913 41.4166 159.958 40.9069 159.704C40.3972 159.449 40.0524 158.94 40.0224 158.356L38.3284 130.985C38.2984 130.416 38.5683 129.862 39.048 129.548C39.5277 129.233 40.1423 129.188 40.652 129.443L65.2372 141.661C65.7469 141.915 66.0917 142.425 66.1216 143.009C66.1366 143.398 66.0167 143.772 65.7769 144.087ZM42.0012 157.473L63.6332 143.158L40.4122 131.614L42.0012 157.473Z" fill="#089BAB"/>
<path d="M50.1995 146.392C49.7648 146.677 49.1801 146.572 48.8803 146.153L43.2437 138.666C42.734 137.963 42.9139 136.974 43.6335 136.495C44.3531 136.016 45.3425 136.241 45.7772 136.974L50.4844 145.075C50.7692 145.524 50.6343 146.108 50.1995 146.392Z" fill="#089BAB"/>
<path d="M52.2833 147.725C52.5831 148.174 52.4632 148.788 51.9985 149.103C51.5487 149.402 50.9341 149.282 50.6193 148.818C50.3195 148.369 50.4394 147.755 50.9041 147.441C51.3538 147.141 51.9685 147.261 52.2833 147.725Z" fill="#089BAB"/>
<path d="M89.7629 207.693C91.1373 207.693 92.2514 206.58 92.2514 205.207C92.2514 203.834 91.1373 202.721 89.7629 202.721C88.3885 202.721 87.2744 203.834 87.2744 205.207C87.2744 206.58 88.3885 207.693 89.7629 207.693Z" stroke="#D2E8F9" stroke-miterlimit="10"/>
<path d="M260.196 281.076C261.57 281.076 262.684 279.963 262.684 278.59C262.684 277.218 261.57 276.105 260.196 276.105C258.821 276.105 257.707 277.218 257.707 278.59C257.707 279.963 258.821 281.076 260.196 281.076Z" stroke="#D2E8F9" stroke-miterlimit="10"/>
<path d="M368.742 372.831C368.742 372.831 358.264 377.293 358.264 379.524C358.264 380.812 372.67 378.97 373.539 378.102C374.934 376.709 372.97 373.011 372.97 373.011L368.742 372.831Z" fill="#2C2A44"/>
<path d="M368.069 366.588L368.744 373.026C368.744 373.026 369.089 374.059 370.558 374.179C372.027 374.299 372.986 373.026 372.986 373.026L372.462 364.97" fill="#FFB9B9"/>
<path d="M386.372 218.997C390.18 234.345 388.771 242.131 383.179 253.705C379.791 292.62 377.437 331.371 372.88 369.313L368.068 369.582C357.125 332.643 347.066 277.422 348.355 226.948" fill="#38AEBB"/>
<path d="M383.989 224.268C385.384 227.831 385.728 231.844 385.608 235.632C385.429 241.457 383.06 246.728 381.516 252.238C379.477 259.604 379.312 266.926 378.758 274.473C377.888 286.287 376.989 298.085 376.089 309.899C374.62 329.155 373.136 348.41 371.637 367.666C371.592 368.235 371.547 368.804 371.502 369.387" stroke="#7D75FF" stroke-width="0.5" stroke-miterlimit="10"/>
<path d="M410.523 374.329C410.523 374.329 400.044 378.791 400.044 381.022C400.044 382.309 414.45 380.468 415.32 379.599C416.714 378.207 414.75 374.508 414.75 374.508L410.523 374.329Z" fill="#2C2A44"/>
<path d="M409.848 368.085L410.522 374.523C410.522 374.523 410.867 375.556 412.336 375.676C413.805 375.796 414.765 374.523 414.765 374.523L414.24 366.468" fill="#FFB9B9"/>
<path d="M421.211 217.695C426.038 232.743 425.139 240.618 420.327 252.537C419.532 291.587 416.834 332.359 414.81 370.525H409.863C396.506 334.395 382.19 278.605 380.121 228.146" fill="#38AEBB"/>
<path d="M364.021 144.925C347.351 173.898 329.407 200.131 318.778 231.799L315.615 230.122C316.425 200.715 325.974 157.952 338.506 131.314" fill="#FFB9B9"/>
<path d="M355.882 114.679C355.882 114.679 350.725 116.132 344.654 120.159C338.942 123.948 334.625 129.593 331.702 135.776C328.763 141.96 327.159 148.698 326.125 155.466C326.125 155.466 333.096 158.955 341.101 159.943C349.091 160.946 357.606 159.943 357.606 159.943" fill="#E2E4ED"/>
<path d="M343.438 131.794C341.669 163.117 343.018 195.355 343.813 225.825C343.813 225.825 354.756 228.73 381.32 228.73C407.794 228.73 425.123 220.674 425.123 220.674C419.997 189.35 415.919 150.929 403.357 125.146C403.357 125.146 389.175 109.873 375.204 109.244C372.385 109.124 369.582 110.142 366.899 111.385C364.92 112.299 355.85 114.515 355.85 114.515L343.438 131.794Z" fill="#E2E4ED"/>
<path d="M369.733 235.692C414.137 230.781 432.755 286.975 442.859 308.776C466.755 360.314 556.91 354.564 598.001 354.564" stroke="#DAD9ED" stroke-width="5" stroke-miterlimit="10" stroke-linecap="round" stroke-linejoin="round"/>
<path d="M385.023 238.238C385.023 261.057 367.739 274.817 352.958 274.817H328.732V201.658H352.958C367.739 201.658 385.023 215.419 385.023 238.238Z" fill="#434360"/>
<path d="M372.536 238.238C372.536 260.533 359.329 278.59 343.019 278.59H316.275V197.87H343.019C359.329 197.87 372.536 215.943 372.536 238.238Z" fill="#2C2A44"/>
<path d="M318.194 278.591C334.496 278.591 347.711 260.524 347.711 238.238C347.711 215.952 334.496 197.885 318.194 197.885C301.892 197.885 288.677 215.952 288.677 238.238C288.677 260.524 301.892 278.591 318.194 278.591Z" fill="#434360"/>
<path d="M320.666 252.537C320.666 255.846 318.402 258.541 315.599 258.541C312.796 258.541 310.532 255.861 310.532 252.537C310.532 249.228 312.796 246.533 315.599 246.533C318.402 246.533 320.666 249.213 320.666 252.537Z" fill="#2C2A44"/>
<path d="M320.666 223.923C320.666 227.232 318.402 229.928 315.599 229.928C312.796 229.928 310.532 227.247 310.532 223.923C310.532 220.614 312.796 217.919 315.599 217.919C318.402 217.919 320.666 220.614 320.666 223.923Z" fill="#2C2A44"/>
<path d="M411.453 154.927C411.453 154.927 413.327 173.988 404.797 189.845C397.496 203.395 383 220.944 371.292 230.616L368.474 229.928C372.551 214.296 385.413 186.55 386.223 176.159C387.017 165.753 386.838 153.699 387.017 147.905" fill="#FFB9B9"/>
<path d="M375.22 109.244C375.22 109.244 390.93 110.322 400.045 118.003C413.057 128.979 414.976 150.48 414.976 155.466C411.048 159.704 402.443 159.928 396.177 159.928C389.911 159.928 385.339 156.934 385.339 156.934L384.064 133.231" fill="#E2E4ED"/>
<path d="M369.613 227.607C367.829 227.786 366.09 228.655 364.591 229.823C363.211 230.901 361.517 232.698 361.697 233.521C361.877 234.39 364.141 232.727 364.411 233.057C364.681 233.386 360.543 239.63 361.323 240.094C362.102 240.558 365.625 234.914 365.625 234.914C365.625 234.914 362.207 240.948 363.526 241.082C364.636 241.187 367.664 235.483 367.664 235.483C367.664 235.483 365.1 240.588 365.985 240.783C366.869 240.978 369.238 235.887 369.238 235.887C369.238 235.887 367.304 240.229 368.039 240.304C368.413 240.349 370.317 238.178 371.127 235.557C371.906 232.982 372.836 230.736 372.116 228.73" fill="#FFB9B9"/>
<path d="M385.997 135.732V157.323" stroke="#E2E4ED" stroke-width="0.5" stroke-miterlimit="10"/>
<path d="M342.662 89.3299C342.587 90.2732 342.542 91.2015 342.542 92.1448C342.557 94.1812 342.827 96.3073 343.996 97.9843C344.806 99.1223 346.02 99.9758 347.369 100.35C348.328 100.605 349.573 100.5 349.992 99.6014C350.142 99.287 350.142 98.9276 350.142 98.5683C350.127 95.0795 349.453 91.6058 348.149 88.3716" fill="#26387A"/>
<path d="M366.361 91.2913C365.012 86.0507 360.77 78.6989 353.874 80.1663C349.542 81.0946 345.554 84.0443 344.28 88.1619C342.751 93.0881 345.224 98.8228 348.178 102.836C349.272 104.318 350.561 105.725 352.24 106.609C356.228 108.675 361.624 106.983 364.338 103.539C367.066 100.11 367.426 95.4388 366.361 91.2913Z" fill="#FFB9B9"/>
<path d="M356.692 105.007L358.94 113.227L355.867 114.679C355.867 114.679 358.206 117.794 362.838 117.12C372.252 115.757 375.206 109.244 375.206 109.244L369.899 108.69L364.022 98.6731" fill="#FFB9B9"/>
<path d="M370.949 85.5566C370.289 81.9481 367.711 78.8935 364.577 76.992C359.001 73.608 351.086 73.3385 346.124 77.9952C343.305 80.6454 338.223 90.0485 344.295 91.9052C346.199 92.4891 348.147 91.3362 349.796 90.2282C351.475 89.1052 353.154 87.9822 354.833 86.8592C355.433 86.455 356.078 86.0357 356.797 86.0058C357.981 85.9609 358.971 86.979 359.391 88.087C359.81 89.1951 359.84 90.4079 360.125 91.5608C360.32 92.3694 360.68 93.2079 361.384 93.672C362.089 94.1212 363.213 93.9865 363.573 93.2378C363.828 92.7137 363.648 92.0998 363.633 91.5159C363.618 90.9319 363.948 90.2132 364.532 90.2432C364.742 90.2582 364.937 90.363 365.102 90.4827C366.571 91.6207 366.092 93.9116 366.586 95.6934C366.646 95.933 366.166 99.5565 366.316 99.7361C370.994 98.6731 371.428 88.1469 370.949 85.5566Z" fill="#2F2E41"/>
<path d="M364.038 90.7224C363.933 90.0635 364.563 89.4496 365.237 89.3748C365.912 89.2999 366.556 89.6443 367.066 90.0785C367.95 90.8122 368.58 91.8903 368.595 93.0282C368.61 93.9266 368.25 94.795 367.756 95.5437C367.426 96.0528 366.991 96.5469 366.406 96.7266C365.657 96.9662 364.832 96.6218 364.293 96.0528" fill="#FFB9B9"/>
<path d="M197.095 372.607C197.095 372.607 207.199 374.284 207.484 376.515C207.649 377.787 193.317 379.3 192.343 378.551C190.784 377.353 192.703 372.876 192.703 372.876L197.095 372.607Z" fill="#2C2A44"/>
<path d="M196.286 366.408L197.111 372.786C197.111 372.786 196.901 373.864 195.462 374.164C194.022 374.463 192.898 373.325 192.898 373.325L191.714 365.36" fill="#FFB9B9"/>
<path d="M158.509 220.959C156.695 236.666 156.605 244.212 163.636 254.963C166.964 270.16 172.076 285.703 175.944 301.26C174.28 319.841 185.942 349.428 192.209 370.555L196.736 369.777C202.837 331.745 205.086 273.41 199.614 222.351" fill="#38AEBB"/>
<path d="M192.059 371.424L191.354 368.669L197.201 368.444L197.276 370.99L192.059 371.424Z" fill="#7D75FF"/>
<path d="M118.484 372.921C118.484 372.921 126.399 378.626 125.694 380.632C125.289 381.785 112.427 377.024 111.918 375.976C111.093 374.299 114.631 371.274 114.631 371.274L118.484 372.921Z" fill="#2C2A44"/>
<path d="M120.418 367.291L118.424 373.086C118.424 373.086 117.795 373.909 116.43 373.565C115.081 373.221 114.602 371.768 114.602 371.768L116.955 364.476" fill="#FFB9B9"/>
<path d="M124.524 217.695C119.697 232.743 120.596 240.618 125.408 252.537C125.693 266.806 125.843 281.226 126.008 295.66C115.829 321.099 114.225 343.918 115.514 368.145L120.416 369.956C120.416 369.956 149.634 319.093 155.001 298.999C161.162 275.94 164.655 251.279 165.614 228.146" fill="#38AEBB"/>
<path d="M125.739 220.959C125.739 220.959 120.417 236.501 127.388 251.474C127.388 255.651 129.786 290.404 128.842 295.765C128.392 298.34 123.61 310.618 120.417 322.581C116.894 335.803 116.145 366.992 116.145 366.992" stroke="#7D75FF" stroke-width="0.5" stroke-miterlimit="10"/>
<path d="M114.602 368.13L115.381 364.865L121.662 367.785L120.418 370.585L114.602 368.13Z" fill="#7D75FF"/>
<path d="M206.24 101.413L202.298 98.0591C202.298 98.0591 202.298 92.1896 202.298 91.1115C202.298 90.0335 200.829 83.5651 199.509 83.5651C198.19 83.5651 197.89 81.948 197.231 82.6068C196.571 83.2656 197.77 90.5725 197.231 91.1115C196.691 91.6506 195.987 87.6378 195.492 88.1319C194.997 88.626 194.952 91.5757 194.952 93.073C194.952 94.5703 196.151 97.3553 197.351 98.5382C198.55 99.736 203.827 105.441 203.827 105.441L206.24 101.413Z" fill="#E6A7A7"/>
<path d="M204.261 99.197L200.978 102.94C200.978 102.94 213.975 120.129 218.098 125.879C214.35 124.562 208.953 121.267 205.835 119.231C199.719 115.233 193.588 113.107 189.36 113.107C180.351 113.107 185.073 142.739 195.507 147.081C215.31 150.061 237.526 148.174 240.914 141.212C245.951 130.895 216.914 106.624 204.261 99.197Z" fill="#D9EEEF"/>
<path d="M143.864 120.938C120.253 147.426 120.613 192.974 120.613 223.938C120.613 223.938 137.942 235.752 164.416 235.752C190.995 235.752 201.924 229.239 201.924 229.239C202.718 197.87 197.111 184.349 202.298 132.467C202.298 132.467 193.843 113.107 189.346 113.107C184.834 113.107 167.219 111.37 167.219 111.37L143.864 120.938Z" fill="#D9EEEF"/>
<path d="M175.03 91.5009C175.914 86.1555 179.722 78.5192 186.723 79.3876C191.115 79.9266 194.518 82.9662 196.977 86.5148C199.09 89.5544 198.296 92.4741 195.283 100.185C194.323 101.757 192.254 104.572 190.665 105.591C186.873 108.001 181.356 106.788 178.343 103.599C175.33 100.41 174.325 95.7233 175.03 91.5009Z" fill="#FFB9B9"/>
<path d="M175.96 90.8421C176.964 90.6923 175.96 90.0335 176.409 90.9469C176.694 91.5308 176.784 91.7105 177.354 91.8902C177.908 92.0848 177.923 92.5939 178.388 92.9383C179.123 93.4773 179.737 92.7437 180.037 92.1148C180.607 90.9619 180.592 89.5544 180.457 88.3116C180.352 87.3234 180.022 85.7662 180.982 85.0774C181.776 84.5234 183.515 85.332 184.324 85.5715C185.584 85.9309 186.828 86.3352 188.072 86.7245C191.085 87.6378 194.278 88.4464 197.442 88.0271C200.215 87.6528 203.078 86.2154 204.412 83.64C206.001 80.5705 202.823 76.5427 199.585 76.5427C198.731 76.5427 197.936 76.8871 197.097 77.0518C196.797 77.1117 196.467 77.1566 196.167 77.0668C195.463 76.8572 195.148 76.0636 194.743 75.4497C193.544 73.578 191.49 73.0091 189.376 73.2486C186.978 73.5181 184.924 74.6561 182.631 75.285C181.416 75.6144 180.367 75.3 179.168 75.3449C177.923 75.3898 176.634 76.1983 176.079 77.3513C175.105 76.3331 172.916 78.8336 172.362 79.5074C169.963 82.4122 169.214 86.6047 169.154 90.2881C169.094 93.5073 169.633 98.1789 173.156 99.4816C174.655 100.036 175.585 100.32 175.66 98.9575C175 97.5351 174.85 94.7351 174.715 93.5522C174.58 92.3693 174.925 90.9619 176.02 90.4977" fill="#2F2E41"/>
<path d="M187.457 104.258L186.692 112.329L189.345 113.077C189.345 113.077 187.936 116.701 183.304 117.315C173.875 118.572 167.219 111.34 167.219 111.34L170.367 110.726L175.134 95.7234" fill="#FFB9B9"/>
<path d="M177.532 90.7821C177.577 90.1083 176.888 89.5543 176.228 89.5394C175.554 89.5244 174.939 89.9137 174.459 90.3928C171.821 93.0131 175.134 99.4067 177.742 96.0976" fill="#FFB9B9"/>
<path d="M195.298 100.036C194.878 101.024 193.199 101.428 192.285 101.518C187.848 102.012 184.175 99.1372 179.932 98.6131C179.093 98.5083 178.134 98.4334 177.504 99.0024C176.904 99.5414 176.859 100.44 176.844 101.233C176.829 102.222 176.814 103.225 176.904 104.198C176.979 105.052 177.144 105.92 177.594 106.654C179.513 109.843 185.899 110.382 189.152 110.187C190.456 110.112 191.82 109.858 192.855 109.079C194.309 107.986 194.624 106.055 195.178 104.363C195.823 102.311 195.298 100.036 195.298 100.036Z" fill="#2F2E41"/>
<path d="M192.165 103.509C192.03 103.42 191.865 103.345 191.7 103.345C189.631 103.345 188.477 102.851 186.873 102.716C186.603 102.701 186.318 102.671 186.049 102.761C185.479 102.94 185.149 103.524 185.029 104.108C184.909 104.692 185.209 105.141 185.734 105.396C186.693 105.875 187.773 106.04 188.837 106.07C189.766 106.1 190.981 106.175 191.745 105.546C192.165 105.201 192.81 103.988 192.165 103.509Z" fill="#FFB9B9"/>
<path d="M172.744 220.687C125.859 217.997 98.5542 244.536 79.1654 292.876C53.9995 355.607 18.8326 360.613 3 360.269" stroke="#DAD9ED" stroke-width="5" stroke-miterlimit="10" stroke-linecap="round" stroke-linejoin="round"/>
<path d="M152.873 224.627C154.777 247.356 173.141 259.649 187.862 258.421L212.012 256.415L205.926 183.511L181.775 185.517C167.054 186.745 150.969 201.898 152.873 224.627Z" fill="#434360"/>
<path d="M165.316 223.594C167.175 245.814 181.851 262.719 198.086 261.356L224.725 259.14L218.009 178.704L191.37 180.92C175.12 182.283 163.457 201.389 165.316 223.594Z" fill="#2C2A44"/>
<path d="M222.806 259.298C239.051 257.945 250.717 238.845 248.863 216.636C247.009 194.428 232.336 177.522 216.092 178.875C199.847 180.228 188.181 199.328 190.035 221.536C191.889 243.744 206.561 260.651 222.806 259.298Z" fill="#434360"/>
<path d="M218.203 233.536C218.473 236.83 220.962 239.33 223.75 239.091C226.538 238.866 228.562 235.991 228.292 232.697C228.022 229.403 225.534 226.903 222.746 227.142C219.957 227.382 217.918 230.242 218.203 233.536Z" fill="#2C2A44"/>
<path d="M215.82 205.042C216.089 208.336 218.578 210.837 221.366 210.597C224.155 210.373 226.178 207.498 225.908 204.204C225.639 200.91 223.15 198.409 220.362 198.649C217.573 198.873 215.535 201.733 215.82 205.042Z" fill="#2C2A44"/>
<path d="M221.698 208.77C224.726 208.516 259.355 205.626 259.355 205.626C261.649 205.431 263.358 203.395 263.163 201.089C262.968 198.768 260.944 197.046 258.65 197.241C258.65 197.241 223.871 200.146 220.993 200.385C218.115 200.625 218.67 209.025 221.698 208.77Z" fill="#E2E4ED"/>
<path d="M224.081 237.279C227.109 237.025 261.738 234.135 261.738 234.135C264.031 233.94 265.74 231.904 265.546 229.598C265.351 227.277 263.327 225.555 261.033 225.75C261.033 225.75 226.254 228.655 223.376 228.894C220.498 229.119 221.037 237.534 224.081 237.279Z" fill="#E2E4ED"/>
<path d="M131.286 154.927C131.286 154.927 129.412 173.988 137.942 189.844C145.243 203.395 159.739 220.944 171.447 230.616L174.265 229.928C170.187 214.296 157.325 186.55 156.516 176.159C155.721 165.753 155.901 153.699 155.721 147.905" fill="#FFB9B9"/>
<path d="M167.219 111.355C167.219 111.355 150.669 112.314 141.15 119.486C124.689 131.898 127.928 165.259 132.71 181.549C137.492 197.84 160.548 222.321 167.998 227.592C169.213 227.592 172.81 227.292 172.676 224.477C168.553 211.765 156.815 178.33 156.815 178.33L158.674 133.216" fill="#D9EEEF"/>
<path d="M173.125 227.607C174.909 227.786 176.648 228.655 178.147 229.823C179.527 230.901 181.221 232.698 181.041 233.521C180.861 234.39 178.597 232.728 178.327 233.057C178.057 233.386 182.195 239.63 181.415 240.094C180.636 240.558 177.113 234.914 177.113 234.914C177.113 234.914 180.531 240.948 179.212 241.083C178.102 241.187 175.074 235.483 175.074 235.483C175.074 235.483 177.638 240.588 176.753 240.783C175.869 240.978 173.5 235.887 173.5 235.887C173.5 235.887 175.434 240.229 174.699 240.304C174.325 240.349 172.421 238.178 171.611 235.557C170.832 232.982 169.902 230.736 170.622 228.73" fill="#FFB9B9"/>
<path d="M482.942 93.9115L485.596 92.0998C485.596 92.0998 486.825 86.3202 487.515 85.272C488.234 84.179 489.598 81.9031 491.157 80.855C491.802 80.4207 494.77 78.7437 495.52 79.4924C495.895 79.8667 494.635 83.2057 494.066 83.7747C493.496 84.3437 491.802 86.9191 492.072 87.7127C492.342 88.5212 493.736 86.7544 494.066 86.425C494.396 86.0956 494.845 85.6763 494.995 86.1105C495.25 86.8292 493.751 90.857 492.582 92.0249C491.412 93.1928 489.508 94.3008 488.189 94.3008L484.052 97.9393" fill="#FFB9B9"/>
<path d="M515.008 74.8657C519.416 77.456 522.129 82.3373 523.193 87.2185C523.388 88.1019 523.538 89.0452 524.153 89.7041C524.632 90.2281 525.322 90.4976 525.982 90.7971C529.624 92.4891 532.428 95.7832 533.702 99.5714C534.257 101.188 533.822 103.464 534.451 104.842C535.231 106.534 538.109 106.908 539.653 107.432C544.286 108.96 547.673 113.616 547.733 118.482C547.778 123.349 544.48 128.065 539.893 129.697C541.122 131.419 541.302 133.755 540.733 135.806C540.163 137.858 538.919 139.654 537.51 141.242C531.678 147.815 522.699 151.333 513.914 150.959C511.38 150.854 508.847 150.435 506.493 149.477C503.84 148.399 501.501 146.647 499.268 144.865C496.569 142.709 493.871 140.343 492.417 137.199C490.963 134.069 491.053 129.967 493.526 127.541C490.678 128.14 487.635 126.583 486.031 124.157C484.427 121.732 484.142 118.602 484.786 115.757C485.431 112.927 486.93 110.352 488.669 108.016C489.898 106.384 491.292 104.722 491.562 102.701C491.997 99.3168 490.108 96.3072 489.614 92.9383C488.849 87.7126 489.089 83.2057 493.571 80.4357C495.01 76.7074 496.749 73.8325 500.872 72.7395C505.744 71.4518 510.616 72.2903 515.008 74.8657Z" fill="#2F2E41"/>
<path d="M504.214 114.619C489.253 110.711 472.148 116.88 468.326 116.865C473.543 111.655 483.137 100.036 486.45 96.0228C486.45 93.2677 484.771 92.4891 484.771 92.4891C484.771 92.4891 443.756 113.676 447.878 127.511C452.18 141.945 492.371 134.863 495.579 139.011" fill="#D9EEEF"/>
<path d="M507.152 249.063C507.107 250.291 501.756 276.584 501.351 279.414C500.197 287.634 504.544 295.884 504.124 308.626C503.615 324.123 497.019 365.749 496.179 367.605C495.34 369.447 491.322 367.755 491.322 367.755C491.322 367.755 479.734 311.905 479.074 289.041C478.535 270.22 481.278 229.478 481.278 229.478" fill="#FFB9B9"/>
<path d="M496.598 368.309C496.598 368.309 497.273 369.717 497.243 370.36C497.153 372.097 497.108 373.28 497.108 373.28L496.359 373.325L496.104 371.903C496.104 371.903 494.095 372.247 492.056 373.595C491.067 374.238 486.09 374.179 485.325 373.774C484.471 373.325 484.711 372.502 484.995 372.172C485.28 371.843 490.662 369.492 490.662 369.492" fill="#2C2A44"/>
<path d="M491.321 367.74C490.887 368.788 486.644 371.094 487.034 371.409C487.424 371.723 489.897 371.738 492.641 370.825C495.144 370.001 496.553 369.073 496.628 368.414L496.148 366.662" fill="#FFB9B9"/>
<path d="M544.361 250.156C544.346 251.384 539.804 277.827 539.489 280.672C538.589 288.922 543.192 297.037 543.162 309.779C543.117 325.277 537.795 367.096 537.015 368.968C536.236 370.84 532.158 369.268 532.158 369.268C532.158 369.268 518.861 313.792 517.512 290.973C516.403 272.167 517.887 231.365 517.887 231.365" fill="#FFB9B9"/>
<path d="M537.45 369.657C537.45 369.657 538.17 371.049 538.155 371.693C538.125 373.43 538.095 374.613 538.095 374.613L537.345 374.688L537.046 373.28C537.046 373.28 535.052 373.685 533.058 375.092C532.084 375.766 527.122 375.871 526.342 375.482C525.473 375.062 525.697 374.239 525.967 373.894C526.237 373.55 531.544 371.049 531.544 371.049" fill="#2C2A44"/>
<path d="M532.173 369.267C531.768 370.331 527.601 372.771 527.991 373.071C528.395 373.37 530.854 373.31 533.567 372.322C536.041 371.424 537.42 370.45 537.48 369.792L536.955 368.055" fill="#FFB9B9"/>
<path d="M530.837 182.508C530.837 182.508 542.725 190.279 547.253 208.935C553.354 234.09 544.359 283.337 544.359 283.337C544.359 283.337 525.741 288.772 505.503 288.592C485.265 288.428 473.272 281.585 473.227 280.372C473.182 279.144 470.214 241.861 474.322 216.571C478.939 188.182 490.707 180.531 490.707 180.531" fill="#38AEBB"/>
<path d="M514.738 114.14C516.582 113.452 521.364 115.129 530.314 118.557C534.241 122.81 535.965 132.108 536.82 140.358C534.496 160.407 531.903 171.368 533.162 178.135C533.462 179.738 534.931 180.95 534.691 183.196C534.211 187.823 526.626 188.527 512.235 190.159C497.843 191.791 484.891 185.263 485.656 183.226C486.435 181.19 488.894 179.393 489.283 178.046C489.673 176.698 490.842 159.509 489.298 157.473C487.739 155.436 483.722 149.567 483.722 143.847C483.722 135.806 488.159 132.198 491.052 127.781C495.894 120.414 499.552 115.802 504.244 114.634C511.71 112.763 514.738 114.14 514.738 114.14Z" fill="#D9EEEF"/>
<path d="M511.291 104.348C515.218 100.455 515.848 93.0581 514.049 88.057C512.04 82.4271 504.005 78.2197 498.488 81.7384C487.635 88.656 498.653 116.895 511.291 104.348Z" fill="#FFB9B9"/>
<path d="M503.81 103.659L504.019 115.697C504.019 115.697 503.57 118.378 508.277 118.542C514.738 118.767 514.738 114.14 514.738 114.14L511.005 101.742" fill="#FFB9B9"/>
<path d="M508.698 76.4229C507.363 75.5544 505.954 75.5095 504.575 76.3181C503.736 76.8122 503.151 77.6357 502.252 78.04C501.622 78.3245 500.857 78.3694 500.198 78.5491C497.065 79.4025 494.096 81.7833 492.777 84.7629C491.443 87.7575 491.878 92.6388 494.366 94.7799C494.261 92.4591 494.951 89.1351 496.195 87.1586C496.84 86.1255 497.874 85.1073 499.073 85.257C500.438 85.4068 501.172 86.8592 502.147 87.8174C503.631 89.2549 505.759 89.5543 507.723 89.8538C509.942 90.1832 511.651 90.5725 512.745 92.7586C513.225 93.7019 513.48 94.75 513.735 95.7682C514.034 96.996 514.334 98.2238 514.409 99.4665C514.454 100.245 514.409 101.054 514.649 101.787C515.144 103.27 516.643 104.168 518.127 104.662C519.266 105.052 521.185 105.396 521.905 104.108C522.504 103.03 523.014 101.518 523.224 100.305C523.913 96.2623 522.624 92.0698 520.436 88.596C518.037 84.7929 514.634 82.2325 511.546 79.0582C510.631 78.1149 509.702 77.0817 508.698 76.4229Z" fill="#2F2E41"/>
<path d="M511.725 94.9447C511.964 94.0313 512.639 93.088 513.584 92.9533C516.657 92.4891 516.192 97.0709 515.008 98.673C514.318 99.6163 512.534 100.829 511.725 98.2388" fill="#FFB9B9"/>
<path d="M544.269 188.662L542.829 191.746C542.829 191.746 537.388 193.034 536.803 193.992C535.889 195.504 534.524 197.601 534.524 198.783C534.524 199.981 534.644 205.192 536.128 205.192C537.073 205.192 539.262 200.925 539.711 200.341C540.776 198.933 545.093 197.915 545.093 194.202L547.732 188.647" fill="#FFB9B9"/>
<path d="M514.737 113.976C514.737 113.976 527.45 110.741 537.374 117C545.094 121.866 564.957 146.063 564.957 159.928C564.957 169.271 546.383 192.42 546.383 192.42L543.295 190.219C543.295 190.219 545.094 172.026 550.491 161.994C546.503 158.012 530.988 145.659 527.075 141.766" fill="#D9EEEF"/>
<path d="M547.79 51.0812L538.706 3.09224C538.166 0.217401 534.718 -0.980451 532.499 0.921138L495.427 32.784C493.208 34.6856 493.898 38.2791 496.656 39.2374L542.813 55.3635C545.557 56.3218 548.33 53.941 547.79 51.0812Z" fill="#E0ECED"/>
<path d="M540.774 50.3475C540.519 50.3475 540.249 50.3026 539.994 50.2128L502.037 36.9466C501.243 36.6771 500.658 35.9883 500.493 35.1648C500.343 34.3413 500.628 33.4878 501.273 32.9488L531.764 6.74576C532.394 6.19175 533.279 6.02705 534.073 6.31154C534.868 6.58105 535.452 7.26982 535.617 8.09334L543.098 47.5625C543.248 48.3861 542.963 49.2395 542.318 49.7935C541.883 50.1529 541.344 50.3475 540.774 50.3475ZM504.076 34.476L539.95 47.0085L532.889 9.72541L504.076 34.476Z" fill="#089BAB"/>
<path d="M524.3 34.2363C523.58 33.9818 523.191 33.2181 523.4 32.4845L527.163 19.2931C527.523 18.0803 528.842 17.4065 530.041 17.8258C531.241 18.245 531.855 19.5776 531.376 20.7605L526.084 33.4128C525.814 34.1165 525.019 34.4759 524.3 34.2363Z" fill="#089BAB"/>
<path d="M524.57 37.8299C524.3 38.5786 523.476 38.9829 522.726 38.7134C521.977 38.4438 521.572 37.6203 521.842 36.8717C522.111 36.123 522.936 35.7187 523.685 35.9882C524.435 36.2428 524.84 37.0663 524.57 37.8299Z" fill="#089BAB"/>
</svg>
