<svg width="45" height="45" viewBox="0 0 45 45" fill="none" xmlns="http://www.w3.org/2000/svg">
<circle cx="22.5" cy="22.5" r="22.5" fill="#FF5252"/>
<path d="M30.5019 30.7687H14.4998C14.1913 30.7687 13.9063 30.5951 13.752 30.3133C13.5978 30.0316 13.5978 29.6844 13.752 29.4026L21.7527 14.8318C21.907 14.5505 22.1918 14.3773 22.5 14.3773C22.8081 14.3773 23.0929 14.5505 23.2473 14.8318L31.2479 29.4026C31.4021 29.6843 31.4022 30.0312 31.2482 30.3129C31.0941 30.5946 30.8094 30.7683 30.5011 30.7687H30.5019ZM21.6378 26.2153V28.0366H22.4434H22.4996H22.5557H23.363V26.2153H21.6378ZM21.6378 19.8405V24.3939H23.3647V19.8405H21.6378Z" fill="white"/>
</svg>
