<svg width="24" height="24" viewBox="0 0 24 24" fill="none" xmlns="http://www.w3.org/2000/svg">
<path fill-rule="evenodd" clip-rule="evenodd" d="M0 12.067C0 18.033 4.333 22.994 10 24V15.333H7V12H10V9.333C10 6.333 11.933 4.667 14.667 4.667C15.533 4.667 16.467 4.8 17.333 4.933V8H15.8C14.333 8 14 8.733 14 9.667V12H17.2L16.667 15.333H14V24C19.667 22.994 24 18.034 24 12.067C24 5.43 18.6 0 12 0C5.4 0 0 5.43 0 12.067Z" fill="url(#paint0_linear_2421_4729)"/>
<defs>
<linearGradient id="paint0_linear_2421_4729" x1="30.4675" y1="-11.2174" x2="-10.2711" y2="-4.99158" gradientUnits="userSpaceOnUse">
<stop stop-color="#006CCF"/>
<stop offset="1" stop-color="#00509A"/>
</linearGradient>
</defs>
</svg>
