<svg width="1em" height="1em" viewBox="0 0 25 25" fill="none" xmlns="http://www.w3.org/2000/svg">
<path d="M8.94372 12.4573C9.79449 11.6851 10.3333 10.6041 10.3333 9.39439C10.3333 8.95684 10.1915 8.4678 9.96464 7.95303C9.70941 7.41252 9.3691 6.87201 8.97208 6.30576C8.97208 6.28002 8.94372 6.28002 8.94372 6.25428C8.1213 5.12178 7.04366 4.01502 6.13618 3.06269L5.569 2.4707L5.00182 3.06269C3.24356 4.91587 0.804688 7.464 0.804688 9.39439C0.804688 10.5784 1.34351 11.6594 2.19428 12.4573C3.04505 13.2295 4.23612 13.7185 5.569 13.7185C6.87351 13.7185 8.06459 13.2295 8.94372 12.4573Z" fill="currentColor"/>
<path d="M21.6776 0.154432L21.5358 0L21.394 0.154432C20.3447 1.26119 18.8984 2.77977 18.8984 3.86079C18.8984 4.53 19.182 5.12199 19.6641 5.55954C20.1462 5.9971 20.7985 6.25449 21.5358 6.25449C22.2732 6.25449 22.9254 5.9971 23.4075 5.55954C23.8896 5.12199 24.1732 4.53 24.1732 3.86079C24.1732 2.77977 22.7269 1.26119 21.6776 0.154432Z" fill="currentColor"/>
<path d="M12.5726 3.73193C12.1472 4.19523 11.6651 4.68426 11.183 5.22477L10.4457 5.99693C10.786 6.48597 11.0696 6.975 11.2965 7.46403C11.6084 8.13324 11.7786 8.7767 11.7786 9.39443C11.7786 10.9387 11.0979 12.3544 9.96358 13.3839C8.82923 14.4135 7.29784 15.0312 5.56794 15.0312C5.17092 15.0312 4.80225 15.0055 4.43358 14.9282C4.29179 14.9025 4.17835 14.8768 4.03656 14.851C3.97984 15.0569 3.92312 15.2628 3.8664 15.4687C3.78133 15.8548 3.72461 16.2152 3.72461 16.6012C3.72461 18.8148 4.71717 20.8224 6.30528 22.2895C7.92174 23.7566 10.1337 24.6317 12.5726 24.6317C15.0115 24.6317 17.2235 23.7308 18.8399 22.2895C20.4564 20.8481 21.4206 18.8148 21.4206 16.6012C21.4206 13.0751 17.0817 8.54506 13.9622 5.25051C13.4801 4.68426 13.0264 4.19523 12.5726 3.73193Z" fill="currentColor"/>
</svg>
