<svg width="15" height="9" viewBox="0 0 15 9" fill="none" xmlns="http://www.w3.org/2000/svg">
<path d="M14.2807 1.95808H6.1625C6.00601 1.23429 5.3409 0.666992 4.57798 0.666992C3.79551 0.666992 3.14996 1.21473 2.99347 1.95808H0.352603C0.156984 1.95808 0.000488281 2.11458 0.000488281 2.3102C0.000488281 2.50582 0.156984 2.66231 0.352603 2.66231H2.99347C3.14996 3.3861 3.81507 3.9534 4.57798 3.9534C5.36046 3.9534 6.00601 3.40566 6.1625 2.66231H14.2807C14.4763 2.66231 14.6328 2.50582 14.6328 2.3102C14.6328 2.11458 14.4763 1.95808 14.2807 1.95808ZM4.57798 3.24917C4.06937 3.24917 3.63901 2.83837 3.63901 2.3102C3.63901 1.80159 4.06937 1.37122 4.57798 1.37122C5.08659 1.37122 5.51696 1.78202 5.51696 2.3102C5.51696 2.81881 5.10616 3.24917 4.57798 3.24917Z" fill="#ffffff"/>
<path d="M14.3743 6.77015H11.3031C11.1466 6.04636 10.4815 5.47906 9.7186 5.47906C8.93612 5.47906 8.29058 6.0268 8.13408 6.77015H0.352115C0.156496 6.77015 0 6.92665 0 7.12227C0 7.31789 0.156496 7.47438 0.352115 7.47438H8.11452C8.27101 8.19817 8.93612 8.76547 9.69904 8.76547C10.4815 8.76547 11.1271 8.21774 11.2836 7.47438H14.3743C14.57 7.47438 14.7265 7.31789 14.7265 7.12227C14.7265 6.92665 14.57 6.77015 14.3743 6.77015ZM9.69904 8.0808C9.19043 8.0808 8.76006 7.67 8.76006 7.14183C8.76006 6.61366 9.19043 6.20286 9.69904 6.20286C10.2076 6.20286 10.638 6.61366 10.638 7.14183C10.638 7.67 10.2272 8.0808 9.69904 8.0808Z" fill="#ffffff"/>
</svg>
