<svg width="55" height="55" viewBox="0 0 55 55" fill="none" xmlns="http://www.w3.org/2000/svg">
<circle cx="27.5" cy="27.5" r="27.5" fill="white" fill-opacity="0.25"/>
<circle cx="27.5" cy="27.5" r="23.5" fill="white" fill-opacity="0.5"/>
<circle cx="27.5" cy="27.5" r="20.5" fill="white"/>
<circle cx="27.5" cy="27.5" r="17.5" fill="#088A98"/>
<path fill-rule="evenodd" clip-rule="evenodd" d="M22.7917 20.5232C22.7917 18.0291 24.8203 16 27.3143 16C29.8086 16 31.837 18.0291 31.8369 20.5232V22.8665C31.8369 25.3608 29.8086 27.3899 27.3143 27.3899C24.8203 27.3899 22.7917 25.3608 22.7917 22.8665V20.5232ZM30.7704 28.132C33.5254 28.9864 35.8402 30.816 37.2884 33.284C37.3217 33.3405 37.3217 33.4107 37.2884 33.4673C35.2326 36.9704 31.4107 39.1465 27.3142 39.1465C23.2178 39.1465 19.3961 36.9704 17.3403 33.4673C17.3071 33.4108 17.3071 33.3407 17.3403 33.2842C18.788 30.8162 21.1026 28.9865 23.8579 28.132C23.9215 28.1122 23.9911 28.129 24.0385 28.176C25.1027 29.2252 26.8927 30.392 27.3177 30.6636C27.7158 30.4255 29.3083 29.4397 30.5898 28.176C30.6374 28.129 30.7065 28.1122 30.7704 28.132ZM33.2707 34.8092C33.3704 34.8092 33.4654 34.733 33.4654 34.6332V33.5462C33.4654 33.4464 33.3704 33.362 33.2707 33.362H32.0336C31.9336 33.362 31.837 33.2844 31.837 33.1844V31.9124C31.837 31.8126 31.7714 31.7339 31.6718 31.7339H30.5835C30.4837 31.7339 30.3897 31.8126 30.3897 31.9124V33.1807C30.3897 33.2807 30.3215 33.3621 30.2217 33.3621H28.944C28.8442 33.3621 28.7616 33.4427 28.7616 33.5425V34.6332C28.7616 34.7328 28.8442 34.8092 28.944 34.8092H30.2217C30.3215 34.8092 30.3897 34.8952 30.39 34.995V36.2617C30.39 36.3614 30.4841 36.4375 30.5839 36.4375H31.684C31.7838 36.4375 31.8372 36.3614 31.8372 36.2617V34.995C31.8372 34.895 31.946 34.8092 32.0458 34.8092H33.2707Z" fill="white"/>
</svg>
