<svg width="55" height="55" viewBox="0 0 55 55" fill="none" xmlns="http://www.w3.org/2000/svg">
<circle cx="27.5" cy="27.5" r="27.5" fill="white" fill-opacity="0.25"/>
<circle cx="27.5" cy="27.5" r="23.5" fill="white" fill-opacity="0.5"/>
<circle cx="27.5" cy="27.5" r="20.5" fill="white"/>
<circle cx="27.5" cy="27.5" r="17.5" fill="#0059AB"/>
<path fill-rule="evenodd" clip-rule="evenodd" d="M22.7915 20.5232C22.7915 18.0291 24.82 16 27.3141 16C29.8083 16 31.8367 18.0291 31.8367 20.5232V22.8665C31.8367 25.3608 29.8083 27.3899 27.3141 27.3899C24.82 27.3899 22.7915 25.3608 22.7915 22.8665V20.5232ZM30.7701 28.132C33.5251 28.9864 35.8399 30.816 37.2882 33.284C37.3215 33.3405 37.3215 33.4107 37.2882 33.4673C35.2324 36.9704 31.4105 39.1465 27.3139 39.1465C23.2176 39.1465 19.3958 36.9704 17.34 33.4673C17.3069 33.4108 17.3069 33.3407 17.34 33.2842C18.7877 30.8162 21.1024 28.9865 23.8577 28.132C23.9212 28.1122 23.9908 28.129 24.0382 28.176C25.1024 29.2252 26.8925 30.392 27.3174 30.6636C27.7156 30.4255 29.308 29.4397 30.5896 28.176C30.6372 28.129 30.7063 28.1122 30.7701 28.132ZM33.2705 34.8092C33.3701 34.8092 33.4651 34.733 33.4651 34.6332V33.5462C33.4651 33.4464 33.3701 33.362 33.2705 33.362H32.0334C31.9334 33.362 31.8367 33.2844 31.8367 33.1844V31.9124C31.8367 31.8126 31.7712 31.7339 31.6715 31.7339H30.5833C30.4835 31.7339 30.3894 31.8126 30.3894 31.9124V33.1807C30.3894 33.2807 30.3213 33.3621 30.2215 33.3621H28.9438C28.844 33.3621 28.7614 33.4427 28.7614 33.5425V34.6332C28.7614 34.7328 28.844 34.8092 28.9438 34.8092H30.2215C30.3213 34.8092 30.3894 34.8952 30.3898 34.995V36.2617C30.3898 36.3614 30.4839 36.4375 30.5837 36.4375H31.6838C31.7836 36.4375 31.8369 36.3614 31.8369 36.2617V34.995C31.8369 34.895 31.9458 34.8092 32.0456 34.8092H33.2705Z" fill="white"/>
</svg>
