<svg width="55" height="55" viewBox="0 0 55 55" fill="none" xmlns="http://www.w3.org/2000/svg">
<circle cx="27.5" cy="27.5" r="27.5" fill="white" fill-opacity="0.25"/>
<circle cx="27.5" cy="27.5" r="23.5" fill="white" fill-opacity="0.5"/>
<circle cx="27.5" cy="27.5" r="20.5" fill="white"/>
<circle cx="27.5" cy="27.5" r="17.5" fill="#088A98"/>
<path d="M35.5296 23.203H34.4494C34.1872 20.8422 32.1801 19 29.7504 19H26.2478C23.8182 19 21.811 20.8422 21.5488 23.203H20.4687C19.5996 23.203 18.8926 23.9101 18.8926 24.7792V33.8858C18.8926 34.7548 19.5996 35.4619 20.4687 35.4619H35.5296C36.3987 35.4619 37.1058 34.7549 37.1058 33.8858V24.7792C37.1057 23.9101 36.3987 23.203 35.5296 23.203ZM26.2479 21.802H29.7504C30.6305 21.802 31.3741 22.3955 31.6034 23.2031H24.3949C24.6242 22.3955 25.3678 21.802 26.2479 21.802Z" fill="white"/>
<path d="M31.5086 30.2029C31.5086 30.3501 31.3686 30.4626 31.2217 30.4626H29.4159C29.2688 30.4626 29.1082 30.5889 29.1082 30.7364V32.6039C29.1082 32.7507 29.0296 32.8629 28.8825 32.8629H27.2607C27.1135 32.8629 26.9749 32.7507 26.9749 32.6039V30.7364C26.9743 30.5892 26.8739 30.4626 26.7267 30.4626H24.8431C24.696 30.4626 24.5742 30.3498 24.5742 30.2029V28.5951C24.5742 28.4479 24.696 28.3292 24.8431 28.3292H26.7267C26.8739 28.3292 26.9743 28.2091 26.9743 28.0616V26.192C26.9743 26.0448 27.113 25.9288 27.2601 25.9288H28.8645C29.0113 25.9288 29.108 26.0448 29.108 26.192V28.0671C29.108 28.2145 29.2505 28.3289 29.3979 28.3289H31.2217C31.3686 28.3289 31.5086 28.4534 31.5086 28.6005V30.2029Z" fill="#088A98"/>
</svg>
