<svg width="55" height="55" viewBox="0 0 55 55" fill="none" xmlns="http://www.w3.org/2000/svg">
<circle cx="27.5" cy="27.5" r="27.5" fill="white" fill-opacity="0.25"/>
<circle cx="27.5" cy="27.5" r="23.5" fill="white" fill-opacity="0.5"/>
<circle cx="27.5" cy="27.5" r="20.5" fill="white"/>
<circle cx="27.5" cy="27.5" r="17.5" fill="#0059AB"/>
<path d="M35.5298 23.203H34.4497C34.1875 20.8422 32.1803 19 29.7506 19H26.2481C23.8184 19 21.8112 20.8422 21.549 23.203H20.469C19.5999 23.203 18.8928 23.9101 18.8928 24.7792V33.8858C18.8928 34.7548 19.5999 35.4619 20.469 35.4619H35.5299C36.3989 35.4619 37.106 34.7549 37.106 33.8858V24.7792C37.106 23.9101 36.3989 23.203 35.5298 23.203ZM26.2481 21.802H29.7507C30.6307 21.802 31.3743 22.3955 31.6036 23.2031H24.3951C24.6245 22.3955 25.3681 21.802 26.2481 21.802Z" fill="white"/>
<path d="M31.5084 30.2029C31.5084 30.3501 31.3683 30.4626 31.2215 30.4626H29.4157C29.2685 30.4626 29.108 30.5889 29.108 30.7364V32.6039C29.108 32.7507 29.0294 32.8629 28.8822 32.8629H27.2604C27.1133 32.8629 26.9746 32.7507 26.9746 32.6039V30.7364C26.9741 30.5892 26.8736 30.4626 26.7265 30.4626H24.8429C24.6957 30.4626 24.574 30.3498 24.574 30.2029V28.5951C24.574 28.4479 24.6957 28.3292 24.8429 28.3292H26.7265C26.8736 28.3292 26.9741 28.2091 26.9741 28.0616V26.192C26.9741 26.0448 27.1127 25.9288 27.2599 25.9288H28.8642C29.0111 25.9288 29.1077 26.0448 29.1077 26.192V28.0671C29.1077 28.2145 29.2502 28.3289 29.3976 28.3289H31.2215C31.3683 28.3289 31.5084 28.4534 31.5084 28.6005V30.2029Z" fill="#0059AB"/>
</svg>
