<?xml version="1.0" encoding="utf-8"?>
<svg viewBox="0 0 27.562 33.049" xmlns="http://www.w3.org/2000/svg">
  <path d="M 13.25 32.594 C 12.727 32.231 12.16 31.942 11.612 31.622 C 9.813 30.575 8.011 29.534 6.207 28.496 C 4.09 27.274 1.972 26.055 -0.147 24.837 C -0.361 24.714 -0.435 24.579 -0.435 24.337 C -0.429 19.274 -0.429 14.209 -0.435 9.145 C -0.435 8.887 -0.361 8.743 -0.129 8.61 C 2.372 7.176 4.868 5.734 7.359 4.283 C 9.226 3.203 11.094 2.124 12.955 1.034 C 13.203 0.889 13.393 0.894 13.639 1.037 C 16.845 2.899 20.055 4.755 23.268 6.605 C 24.44 7.283 25.608 7.97 26.784 8.641 C 26.961 8.742 27.022 8.854 27.021 9.052 C 27.015 11.369 27.014 13.685 27.017 16.002 C 27.017 18.757 27.013 21.513 27.024 24.268 C 27.024 24.549 26.936 24.7 26.694 24.838 C 24.526 26.077 22.362 27.325 20.203 28.58 C 17.944 29.888 15.685 31.196 13.427 32.507 C 13.382 32.533 13.339 32.565 13.295 32.594 Z M 1.221 16.719 C 1.221 18.944 1.219 21.169 1.216 23.396 C 1.216 23.608 1.271 23.738 1.466 23.85 C 2.99 24.72 4.506 25.604 6.026 26.482 C 8.371 27.836 10.715 29.192 13.059 30.548 C 13.223 30.643 13.345 30.647 13.513 30.548 C 15.015 29.67 16.524 28.803 18.029 27.931 C 20.373 26.575 22.714 25.214 25.064 23.867 C 25.304 23.731 25.374 23.577 25.373 23.313 C 25.366 18.939 25.368 14.565 25.379 10.19 C 25.379 9.852 25.265 9.683 24.985 9.522 C 21.279 7.39 17.577 5.253 13.879 3.11 C 13.163 2.696 13.416 2.701 12.698 3.115 C 10.855 4.173 9.019 5.245 7.179 6.31 C 5.274 7.412 3.367 8.513 1.459 9.611 C 1.274 9.717 1.217 9.838 1.217 10.044 C 1.223 12.269 1.224 14.494 1.221 16.719 Z" />
  <path d="M 9.291 16.744 C 9.291 13.534 9.289 10.325 9.286 7.115 C 9.286 6.878 9.365 6.746 9.565 6.63 C 10.723 5.958 11.878 5.28 13.023 4.586 C 13.265 4.44 13.44 4.444 13.678 4.586 C 15.172 5.479 16.671 6.362 18.175 7.235 C 18.344 7.334 18.38 7.412 18.26 7.583 C 18.004 7.946 17.761 8.323 17.53 8.705 C 17.424 8.881 17.336 8.887 17.171 8.786 C 15.962 8.051 14.746 7.327 13.537 6.592 C 13.395 6.506 13.292 6.505 13.146 6.588 C 12.482 6.964 11.812 7.333 11.137 7.692 C 10.99 7.77 10.935 7.864 10.935 8.03 C 10.939 10.482 10.939 12.935 10.935 15.388 C 10.935 15.626 11.039 15.658 11.238 15.657 C 13.054 15.652 14.871 15.652 16.688 15.654 C 17.029 15.654 17.03 15.654 17.031 15.994 C 17.031 16.455 17.031 16.917 17.031 17.379 C 17.031 17.701 17.031 17.702 16.698 17.702 C 14.904 17.702 13.11 17.702 11.316 17.702 C 10.94 17.702 10.94 17.702 10.94 18.069 C 10.94 21.188 10.94 24.307 10.94 27.426 C 10.94 27.508 10.976 27.62 10.91 27.664 C 10.824 27.72 10.745 27.619 10.672 27.573 C 10.289 27.33 9.915 27.073 9.527 26.836 C 9.351 26.729 9.288 26.601 9.288 26.394 C 9.293 23.177 9.294 19.961 9.291 16.744 Z" />
  <path d="M 6.068 16.83 L 6.068 16.586 C 6.068 14.156 6.072 11.726 6.062 9.297 C 6.062 9.032 6.125 8.869 6.374 8.742 C 6.812 8.519 7.23 8.258 7.652 8.005 C 7.807 7.914 7.856 7.935 7.855 8.12 C 7.849 8.884 7.852 9.649 7.852 10.413 C 7.852 15.431 7.852 20.449 7.852 25.467 C 7.852 25.535 7.85 25.604 7.852 25.671 C 7.857 25.829 7.811 25.888 7.654 25.793 C 7.356 25.615 7.055 25.44 6.751 25.269 C 6.644 25.211 6.567 25.109 6.541 24.99 C 6.154 23.512 5.765 22.034 5.375 20.557 C 4.955 18.97 4.534 17.385 4.081 15.801 L 4.081 23.323 C 4.081 23.391 4.081 23.459 4.081 23.527 C 4.081 23.656 4.028 23.695 3.912 23.628 C 3.525 23.406 3.14 23.18 2.752 22.96 C 2.624 22.887 2.619 22.771 2.619 22.646 C 2.619 21.874 2.619 21.102 2.619 20.33 C 2.619 17.416 2.617 14.502 2.614 11.588 C 2.614 11.364 2.673 11.224 2.876 11.117 C 3.239 10.928 3.591 10.722 3.939 10.509 C 4.102 10.409 4.162 10.459 4.209 10.619 C 4.454 11.47 4.704 12.319 4.952 13.168 C 5.308 14.388 5.664 15.608 6.02 16.828 Z" />
  <path d="M 20.382 17.969 C 20.382 15.652 20.378 13.336 20.386 11.02 C 20.386 10.795 20.319 10.661 20.126 10.543 C 19.559 10.196 19.005 9.825 18.44 9.473 C 18.268 9.365 18.235 9.272 18.355 9.095 C 18.582 8.764 18.789 8.42 18.991 8.075 C 19.073 7.939 19.136 7.901 19.289 7.999 C 20.968 9.068 22.649 10.132 24.334 11.189 C 24.467 11.273 24.52 11.367 24.516 11.52 C 24.51 12.027 24.516 12.534 24.512 13.041 C 24.512 13.112 24.545 13.207 24.46 13.246 C 24.39 13.277 24.336 13.206 24.282 13.169 C 23.681 12.76 23.082 12.349 22.48 11.943 C 22.403 11.89 22.321 11.777 22.232 11.824 C 22.157 11.863 22.201 11.991 22.201 12.079 C 22.201 16.03 22.202 19.98 22.205 23.931 C 22.205 24.167 22.134 24.305 21.929 24.415 C 21.489 24.651 21.062 24.91 20.627 25.156 C 20.404 25.283 20.38 25.269 20.379 25.006 C 20.377 23.773 20.377 22.539 20.379 21.305 C 20.379 20.193 20.379 19.08 20.379 17.968 Z" />
</svg>
