<svg width="1em" height="1em" viewBox="0 0 27 21" fill="none" xmlns="http://www.w3.org/2000/svg">
<path d="M21.0195 18.2508C21.0195 19.7691 22.3583 21 24.0098 21C25.6612 21 27 19.7691 27 18.2508C27 16.7324 25.6612 15.5015 24.0098 15.5015C22.9601 15.5015 22.0373 15.9992 21.5038 16.7516L16.4023 15.0011C16.4789 14.6873 16.5207 14.3612 16.5207 14.0261C16.5207 12.9355 16.0917 11.9374 15.3814 11.1652L21.0297 5.4073C21.495 5.65609 22.0355 5.79935 22.6125 5.79935C24.3544 5.79935 25.7664 4.50116 25.7664 2.89967C25.7664 1.29819 24.3544 -1.05906e-07 22.6125 -1.75634e-07C20.8706 -2.45362e-07 19.4586 1.29819 19.4586 2.89967C19.4586 3.53727 19.6829 4.12636 20.0623 4.60501L14.4145 10.3623C13.6407 9.87636 12.7054 9.59176 11.6977 9.59176C10.4819 9.59176 9.37213 10.0062 8.52386 10.6887L5.30588 6.83354C5.74389 6.35358 6.00811 5.73503 6.00811 5.05946C6.00811 3.53404 4.6632 2.29753 3.00405 2.29753C1.34491 2.29753 1.73866e-06 3.53416 1.66586e-06 5.05946C1.59305e-06 6.58488 1.34504 7.82138 3.00405 7.82138C3.45757 7.82138 3.88724 7.72843 4.27262 7.56313L7.65253 11.6125C7.16111 12.3072 6.87462 13.1356 6.87462 14.0262C6.87462 16.4751 9.03392 18.4605 11.6977 18.4605C13.536 18.4605 15.1337 17.5147 15.9475 16.1237L21.0482 17.8739C21.0298 17.9971 21.0195 18.1228 21.0195 18.2508Z" fill="currentColor"/>
</svg>
